<svg width="20" height="20" viewBox="0 0 20 20" fill="none" xmlns="http://www.w3.org/2000/svg">
<g clip-path="url(#clip0_1_939)">
<path d="M4.92163 4.92165H4.92983M4.92163 14.7654H4.92983M3.28101 1.6404H16.406C17.3121 1.6404 18.0466 2.37493 18.0466 3.28102V6.56227C18.0466 7.46836 17.3121 8.2029 16.406 8.2029H3.28101C2.37491 8.2029 1.64038 7.46836 1.64038 6.56227V3.28102C1.64038 2.37493 2.37491 1.6404 3.28101 1.6404ZM3.28101 11.4841H16.406C17.3121 11.4841 18.0466 12.2187 18.0466 13.1248V16.406C18.0466 17.3121 17.3121 18.0466 16.406 18.0466H3.28101C2.37491 18.0466 1.64038 17.3121 1.64038 16.406V13.1248C1.64038 12.2187 2.37491 11.4841 3.28101 11.4841Z" stroke="#1873DE" stroke-width="1.64062" stroke-linecap="round" stroke-linejoin="round"/>
</g>
<defs>
<clipPath id="clip0_1_939">
<rect width="19.6875" height="19.6875" fill="white"/>
</clipPath>
</defs>
</svg>
