<svg width="23" height="23" viewBox="0 0 23 23" fill="none" xmlns="http://www.w3.org/2000/svg">
<g clip-path="url(#clip0_1_763)">
<path d="M5.58035 5.58035H5.58965M5.58035 16.7411H5.58965M3.72023 1.86011H18.6012C19.6285 1.86011 20.4613 2.69291 20.4613 3.72023V7.44047C20.4613 8.46778 19.6285 9.30058 18.6012 9.30058H3.72023C2.69291 9.30058 1.86011 8.46778 1.86011 7.44047V3.72023C1.86011 2.69291 2.69291 1.86011 3.72023 1.86011ZM3.72023 13.0208H18.6012C19.6285 13.0208 20.4613 13.8536 20.4613 14.8809V18.6012C20.4613 19.6285 19.6285 20.4613 18.6012 20.4613H3.72023C2.69291 20.4613 1.86011 19.6285 1.86011 18.6012V14.8809C1.86011 13.8536 2.69291 13.0208 3.72023 13.0208Z" stroke="#3994FF" stroke-width="2.1875" stroke-linecap="round" stroke-linejoin="round"/>
</g>
<defs>
<clipPath id="clip0_1_763">
<rect width="22.3214" height="22.3214" fill="white"/>
</clipPath>
</defs>
</svg>
